<?xml version="1.0" encoding="utf-8"?>
<!-- Generator: Adobe Illustrator 28.2.0, SVG Export Plug-In . SVG Version: 6.00 Build 0)  -->
<svg version="1.1" xmlns="http://www.w3.org/2000/svg" xmlns:xlink="http://www.w3.org/1999/xlink" x="0px" y="0px"
	 viewBox="0 0 224.1 225.3" style="enable-background:new 0 0 224.1 225.3;" xml:space="preserve">
<style type="text/css">
	.st0{display:none;}
	.st1{display:inline;fill:#B24646;stroke:#000000;stroke-miterlimit:10;}
	.st2{fill:#E5E5E5;}
	.st3{fill:#FFFFFF;}
</style>
<g id="Layer_2" class="st0">
	<rect x="-38.7" y="-38.4" class="st1" width="324.6" height="297.3"/>
</g>
<g id="Layer_1">
	<g>
		<g>
			<path class="st2" d="M117.5,199.4L117.5,199.4c0-0.8,0-57.9,0-57.9v-30.7c0-16.5,0-33,0-49.5V25.7l3.9-2.2
				c4.6-2.6,9-5.2,13.6-7.8c0.9-0.4,1.9-0.4,2.8,0l8.5,4.9c0.7,0.3,0.7,1.3,0,1.7L132.7,30c-2.3,1.3-3.7,3.8-3.7,6.5v15.9
				c0,4.9,0,9.8-0.1,14.6c-0.1,9.6-0.1,19.7,0.1,29.5c0,3.4,1.6,5.9,4.5,7.7c1.9,1.1,3.8,2.2,5.6,3.2c1,0.6,2,1.1,3,1.8l10.3,5.9
				c1.2,4.6,5.4,8,10.4,7.9c5.6,0,10.3-4.5,10.6-10.1c0.3-6.1-4.6-11.2-10.6-11.2c-1,0-1.9,0.1-2.8,0.3c-4.6-2.7-9.2-5.2-13.7-7.9
				c-1.3-0.8-2.2-2.2-2.2-3.9v-48c0-1,0.6-1.9,1.3-2.3c3.4-1.9,12.2-7,16.1-9.3c0.9-0.4,1.9-0.4,2.7,0l16.1,9.3
				c0.9,0.4,1.3,1.3,1.3,2.3V61c0,1-0.6,1.9-1.3,2.3c-3.2,1.9-11.4,6.6-14.6,8.5c-0.9-0.2-1.9-0.4-2.8-0.4c-6,0-10.9,5.1-10.6,11.3
				c0.3,5.6,5,10.1,10.6,10.1c5,0,9.2-3.4,10.4-8c0,0,9.3-5.4,13.7-7.8c1.5-0.8,3.2-0.8,4.6,0c4.7,2.7,9.4,5.5,14.2,8.2
				c1.5,0.8,2.3,2.3,2.3,4v47c0,1.5-0.8,2.8-2,3.6c-1.9,1.1-3.7,2.1-5.6,3.2c-1.7,1-3.8-0.2-3.8-2.1v-5.5c2.7-2.7,3.9-6.7,2.8-10.6
				c-1.2-4-4.8-7-9-7.5c-6.4-0.7-11.8,4.4-11.8,10.6c0,2.9,1.2,5.6,3.2,7.6v46.9c0,1.2-0.7,2.3-1.7,2.9l-15.4,8.9
				c-1,0.6-2.3,0.6-3.4,0l-14.6-8.3c-1.2-4.6-5.4-8-10.4-8c-5.6,0-10.3,4.5-10.6,10.1c-0.3,6.1,4.6,11.3,10.6,11.3
				c1,0,1.9-0.1,2.8-0.3c1.6,0.9,3,1.8,4.6,2.7l1.5,0.9c1.1,0.7,1.1,2.2,0,2.9l-7.4,4.2c-1,0.6-2.1,0.6-3.1,0L117.5,199.4z
				 M155.2,165.7c-2,2-3.2,4.7-3.2,7.6c0,5.9,4.8,10.6,10.6,10.6c5.8,0,10.6-4.8,10.6-10.6c0-2.9-1.2-5.6-3.2-7.6v-22.8
				c0-2.7-1.5-5.1-3.7-6.5c-6.6-3.8-13.2-7.6-19.8-11.4c-1.2-4.6-5.4-8-10.3-8c-5.9,0-10.6,4.8-10.6,10.6c0,5.9,4.8,10.6,10.6,10.6
				c1,0,1.9-0.1,2.8-0.3c5.4,3.1,10.7,6.1,16,9.3L155.2,165.7L155.2,165.7z"/>
			<g>
				<path class="st3" d="M133.3,40.3c0,10.4,0,20.8,0,31.2c0,8.6,0,17.2,0,25.8c0,1.1,0.6,2.1,1.6,2.7c7.1,4.1,14.4,8.3,21.6,12.5
					c0,0,0,0,0,0.1c0,3.5,2.8,6.3,6.3,6.3s6.3-2.8,6.3-6.3s-2.8-6.3-6.3-6.3c-1.1,0-2.2,0.3-3.1,0.9c-6.7-3.9-13.4-7.7-20-11.6
					c0-17.2,0-34.3,0-51.5c0-1.9,0-3.8,0-5.7c7.7-4.5,15.5-8.9,23.2-13.4c6.7,3.9,13.4,7.7,20,11.6c0,0,0,0,0,0.1
					c0,3.5,2.8,6.3,6.3,6.3s6.3-2.8,6.3-6.3s-2.8-6.3-6.3-6.3c-1.1,0-2.2,0.3-3.1,0.9c-6.3-3.6-12.5-7.3-18.8-10.8
					c-0.9-0.6-1.8-1.2-2.8-1.6c-1.9-0.9-3.1,0-4.8,0.9c-4.5,2.6-9,5.2-13.5,7.8c-3.6,2.1-7.5,3.9-10.9,6.4
					C132.7,35.3,133.3,38,133.3,40.3z"/>
				<path class="st3" d="M218.4,137.4c0-11.1,0-22.2,0-33.3c0-6.7,0-13.3,0-20c0-1.9,0.2-3.5-1.6-4.7c-2.1-1.5-4.5-2.6-6.7-3.8
					c-6.5-3.8-13.1-7.5-19.5-11.3c-1-0.6-2.1-0.6-3.1,0c-7.1,4.1-14.4,8.3-21.6,12.4c-0.9-0.6-2-0.9-3.2-0.9c-3.5,0-6.3,2.8-6.3,6.3
					s2.8,6.3,6.3,6.3s6.3-2.8,6.3-6.3l0,0c6.7-3.9,13.4-7.7,20-11.6c7.7,4.5,15.5,8.9,23.2,13.4c0,17.2,0,34.3,0,51.5
					c0,0.7,0,1.3,0,2c-1.9,1.1-3.2,3.1-3.2,5.5c0,3.5,2.8,6.3,6.3,6.3c3.5,0,6.3-2.8,6.3-6.3C221.5,140.5,220.3,138.5,218.4,137.4z"
					/>
				<path class="st3" d="M136.3,212.6c-1.1,0-2.2,0.3-3.2,0.9c-6.7-3.9-13.4-7.7-20-11.6c0-9.7,0-19.4,0-29.2v-67.2
					c0-15.5,0-31.2,0-46.7c0-11.8,0.3-23.8,0-35.6c6.7-3.8,13.4-7.7,20-11.5c0.9,0.6,2,0.9,3.2,0.9c3.5,0,6.3-2.8,6.3-6.3
					S139.8,0,136.3,0S130,2.8,130,6.3c0,0,0,0,0,0.1c-6.7,3.8-13.4,7.7-20,11.6c-8.3-4.8-16.5-9.5-24.8-14.3c-1-0.6-2.1-0.6-3.1,0
					c-8.8,5-17.5,10.2-26.4,15.2c-5.7,3.2-11.4,6.6-17.1,9.8c-2.8,1.7-5.7,3.2-8.5,4.9c-2.1,1.2-2.2,2.9-2.2,5v24.1
					c0,0.8-0.1,1.7-0.1,2.6C20.6,69.6,13.2,73.8,5.9,78c-2.3,1.3-4.2,2.2-4.4,5.2c0,3.5,0,6.8,0,10.3v46.8c0,2.5-0.1,4.4,2.2,5.8
					c7.9,4.8,16,9.3,24,13.9v28.6c0,1.1,0.6,2.1,1.6,2.7c7.8,4.5,15.6,9,23.6,13.6c0.9,0.6,1.8,1.2,2.8,1.6
					c8.8,5,17.5,10.2,26.4,15.2c1,0.6,2.1,0.6,3.1,0c8.3-4.8,16.5-9.5,24.8-14.3c6.7,3.9,13.4,7.7,20,11.6v0.1
					c0,3.5,2.8,6.3,6.3,6.3s6.3-2.8,6.3-6.3C142.7,215.4,139.8,212.6,136.3,212.6z M106.9,61.3c0,16.5,0,33,0,49.5v30.7
					c0,18.5,0,37,0,55.5c0,1.7,0,3.2,0,4.9c-7.7,4.5-15.5,8.9-23.2,13.4c-6.7-3.9-13.4-7.7-20.1-11.6c3.5-2,7-4,10.5-6
					c2.1-1.2,4.2-2.5,6.5-3.7c0.9,0.6,2,0.9,3.1,0.9c3.5,0,6.3-2.8,6.3-6.3s-2.8-6.3-6.3-6.3s-6.3,2.8-6.3,6.3c0,0,0,0,0,0.1
					c-6.7,3.9-13.4,7.7-20,11.6c-7.7-4.5-15.5-8.9-23.2-13.4v-53.5c1.9-1.1,3.2-3.1,3.2-5.5c0-3.5-2.8-6.3-6.3-6.3s-6.3,2.8-6.3,6.3
					c0,2.3,1.3,4.4,3.2,5.5V153c-6.7-3.9-13.4-7.7-20.1-11.6V83.9c7.7-4.5,15.4-8.9,23.1-13.4c1.6,1,3.4,1.8,4.9,2.7
					c5,2.9,10.2,5.8,15.2,8.8c0,0,0,0,0,0.1c0,3.5,2.8,6.3,6.3,6.3s6.3-2.8,6.3-6.3s-2.8-6.3-6.3-6.3c-1.1,0-2.2,0.3-3.2,0.9
					c-6.7-3.9-13.4-7.7-20-11.6V38.3c7.7-4.5,15.5-8.9,23.2-13.4c7.7,4.5,15.5,8.9,23.2,13.4v57.2c-6.7,3.8-13.4,7.7-20,11.6
					c-0.9-0.6-2-0.9-3.1-0.9c-3.5,0-6.3,2.8-6.3,6.3s2.8,6.3,6.3,6.3s6.3-2.8,6.3-6.3v-0.1c4-2.3,8.2-4.7,12.2-7
					c2.9-1.7,5.8-3.2,8.6-4.9c1.6-0.9,2.3-2.1,2.3-4c0.2-14.6,0-29.4,0-44.1V36.5c0-1.1-0.6-2.1-1.6-2.7
					c-7.3-4.1-14.4-8.4-21.7-12.5c6.7-3.9,13.4-7.7,20.1-11.6c7.7,4.5,15.5,8.9,23.2,13.4L106.9,61.3L106.9,61.3z"/>
				<path class="st3" d="M156.4,173.2c0,3.5,2.8,6.3,6.3,6.3s6.3-2.8,6.3-6.3c0-2.3-1.3-4.4-3.2-5.5c0-7.3,0-14.4,0-21.7
					c0-1,0.1-2.1,0-3.2c-0.2-2-1.6-2.7-3.1-3.6c-4.5-2.6-9-5.2-13.5-7.8c-2.1-1.2-4.4-2.5-6.5-3.7c0,0,0,0,0-0.1
					c0-3.5-2.8-6.3-6.3-6.3s-6.3,2.8-6.3,6.3s2.8,6.3,6.3,6.3c1.1,0,2.2-0.3,3.1-0.9c6.7,3.9,13.4,7.7,20,11.6c0,7.7,0,15.4,0,23.1
					C157.6,168.9,156.4,170.9,156.4,173.2z"/>
				<path class="st3" d="M89.9,127.7c0,3.5-2.8,6.3-6.3,6.3c-1.1,0-2.2-0.3-3.1-0.9c-6.7,3.8-13.4,7.7-20,11.6v23.1
					c1.9,1.1,3.2,3.1,3.2,5.5c0,3.5-2.8,6.3-6.3,6.3s-6.3-2.8-6.3-6.3c0-2.3,1.3-4.4,3.2-5.5v-24.9c0-1.1,0.6-2.1,1.6-2.7
					c7.1-4.1,14.4-8.3,21.6-12.5c0,0,0,0,0-0.1c0-3.5,2.8-6.3,6.3-6.3C87.2,121.4,89.9,124.2,89.9,127.7z"/>
				<path class="st3" d="M188.9,121.4c-3.5,0-6.3,2.8-6.3,6.3c0,2.3,1.3,4.4,3.2,5.5c0,16,0,31.8,0,47.8c0,1.9,0,3.8,0,5.7
					c-7.7,4.5-15.5,8.9-23.2,13.4c-6.7-3.9-13.4-7.7-20-11.6l0,0c0-3.5-2.8-6.3-6.3-6.3c-3.5,0-6.3,2.8-6.3,6.3s2.8,6.3,6.3,6.3
					c1.1,0,2.2-0.3,3.2-0.9c7.1,4.1,14.4,8.3,21.6,12.4c1,0.6,2.1,0.6,3.1,0c5.6-3.2,11.3-6.5,16.9-9.7c2.9-1.7,5.8-3.2,8.6-4.9
					c1.6-1,2.3-2.1,2.3-4c0.2-14.6,0-29.4,0-44.1c0-3.5,0-6.9,0-10.4c1.9-1.1,3.2-3.1,3.2-5.5C195.3,124.2,192.4,121.4,188.9,121.4z
					"/>
			</g>
		</g>
	</g>
</g>
</svg>
